<svg width="94" height="32" viewBox="0 0 94 32" fill="none" xmlns="http://www.w3.org/2000/svg">
<path d="M58.0169 26C56.5217 26 55.176 25.672 53.9798 25.0161C52.8023 24.3601 51.8584 23.4324 51.1482 22.2329C50.4566 21.0335 50.1109 19.6185 50.1109 17.988C50.1109 16.3574 50.466 14.9518 51.1762 13.7711C51.8865 12.5716 52.849 11.6533 54.0639 11.0161C55.2788 10.3601 56.6338 10.0321 58.1291 10.0321C59.6243 10.0321 60.97 10.3601 62.1662 11.0161C63.3811 11.6533 64.3436 12.5716 65.0539 13.7711C65.7641 14.9518 66.1192 16.3574 66.1192 17.988C66.1192 19.6185 65.7547 21.0335 65.0258 22.2329C64.3156 23.4324 63.3437 24.3601 62.1101 25.0161C60.8952 25.672 59.5308 26 58.0169 26ZM58.0169 22.5422C58.7085 22.5422 59.3626 22.3829 59.9794 22.0643C60.5962 21.7269 61.1008 21.2209 61.4933 20.5462C61.8858 19.8527 62.0821 19 62.0821 17.988C62.0821 16.9759 61.8858 16.1325 61.4933 15.4578C61.1195 14.7831 60.6242 14.2865 60.0074 13.9679C59.4094 13.6305 58.7645 13.4618 58.073 13.4618C57.3814 13.4618 56.7366 13.6305 56.1385 13.9679C55.5591 14.2865 55.0825 14.7831 54.7087 15.4578C54.3349 16.1325 54.148 16.9759 54.148 17.988C54.148 19 54.3256 19.8527 54.6807 20.5462C55.0358 21.2209 55.503 21.7269 56.0825 22.0643C56.6805 22.3829 57.3254 22.5422 58.0169 22.5422Z" fill="#F3EEE9"/>
<path d="M43.2888 21.6145V5H47.2418V21.3614C47.2418 21.7738 47.3633 22.083 47.6063 22.2892C47.8492 22.4953 48.139 22.5984 48.4754 22.5984C48.7184 22.5984 48.9239 22.5609 49.0922 22.4859L49.8211 25.494C49.1669 25.8313 48.4193 26 47.5782 26C46.8867 26 46.2045 25.8594 45.5316 25.5783C44.8775 25.2784 44.3354 24.8099 43.9056 24.1727C43.4944 23.5167 43.2888 22.664 43.2888 21.6145Z" fill="#F3EEE9"/>
<path d="M35.7312 21.6145V5H39.6842V21.3614C39.6842 21.7738 39.8057 22.083 40.0487 22.2892C40.2917 22.4953 40.5814 22.5984 40.9178 22.5984C41.1608 22.5984 41.3664 22.5609 41.5346 22.4859L42.2635 25.494C41.6093 25.8313 40.8617 26 40.0207 26C39.3291 26 38.6469 25.8594 37.9741 25.5783C37.3199 25.2784 36.7779 24.8099 36.348 24.1727C35.9368 23.5167 35.7312 22.664 35.7312 21.6145Z" fill="#F3EEE9"/>
<path d="M25.8986 26C24.4033 26 23.0576 25.672 21.8614 25.0161C20.684 24.3601 19.7401 23.4324 19.0298 22.2329C18.3383 21.0335 17.9925 19.6185 17.9925 17.988C17.9925 16.3574 18.3476 14.9518 19.0579 13.7711C19.7681 12.5716 20.7307 11.6533 21.9456 11.0161C23.1604 10.3601 24.5155 10.0321 26.0107 10.0321C27.506 10.0321 28.8517 10.3601 30.0479 11.0161C31.2627 11.6533 32.2253 12.5716 32.9355 13.7711C33.6458 14.9518 34.0009 16.3574 34.0009 17.988C34.0009 19.6185 33.6364 21.0335 32.9075 22.2329C32.1973 23.4324 31.2254 24.3601 29.9918 25.0161C28.7769 25.672 27.4125 26 25.8986 26ZM25.8986 22.5422C26.5901 22.5422 27.2443 22.3829 27.8611 22.0643C28.4779 21.7269 28.9825 21.2209 29.375 20.5462C29.7675 19.8527 29.9637 19 29.9637 17.988C29.9637 16.9759 29.7675 16.1325 29.375 15.4578C29.0012 14.7831 28.5059 14.2865 27.8891 13.9679C27.291 13.6305 26.6462 13.4618 25.9547 13.4618C25.2631 13.4618 24.6183 13.6305 24.0202 13.9679C23.4408 14.2865 22.9642 14.7831 22.5904 15.4578C22.2166 16.1325 22.0297 16.9759 22.0297 17.988C22.0297 19 22.2072 19.8527 22.5623 20.5462C22.9175 21.2209 23.3847 21.7269 23.9641 22.0643C24.5622 22.3829 25.207 22.5422 25.8986 22.5422Z" fill="#F3EEE9"/>
<path d="M0 6.18072H3.95303V25.8032H0V6.18072ZM12.3076 6.18072H16.2607V25.8032H12.3076V6.18072ZM3.39231 14.249H13.0085V17.4538H3.39231V14.249Z" fill="#F3EEE9"/>
<path d="M94 13.504C93.9187 13.504 93.6655 13.455 93.2753 14.3637C92.875 15.2961 92.623 16.6138 92.3282 18.2157C92.0572 19.6885 91.7433 21.4458 91.1535 22.8194C90.5534 24.2168 89.392 25.8032 87.2101 25.8032C85.0282 25.8032 83.8668 24.2168 83.2667 22.8194C82.677 21.4458 82.3631 19.6885 82.092 18.2157C81.7973 16.6138 81.5453 15.2961 81.1449 14.3637C80.7547 13.455 80.5016 13.504 80.4202 13.504C80.3389 13.504 80.0857 13.455 79.6956 14.3637C79.2952 15.2961 79.0432 16.6138 78.7484 18.2157C78.4774 19.6885 78.1635 21.4458 77.5737 22.8194C76.9737 24.2168 75.8123 25.8032 73.6304 25.8032C72.6189 25.8032 71.7456 25.4407 71.0628 24.8046C70.4265 24.2118 70.0311 23.4533 69.764 22.7473C69.2457 21.377 69.0077 19.6087 68.7861 18.1634C68.5425 16.5751 68.3101 15.2933 67.9014 14.4048C67.7088 13.9863 67.5268 13.7708 67.388 13.6627C67.2792 13.578 67.1313 13.504 66.8405 13.504V9.98996C67.8699 9.98996 68.7835 10.3004 69.5381 10.8882C70.2626 11.4527 70.7463 12.1982 71.0841 12.9326C71.7363 14.3502 72.0224 16.1434 72.2503 17.6298C72.5002 19.2591 72.6869 20.5659 73.0409 21.5016C73.2099 21.9483 73.3625 22.1511 73.4481 22.2308C73.4872 22.2673 73.5103 22.2892 73.6304 22.2892C73.7117 22.2892 73.9649 22.3382 74.355 21.4295C74.7554 20.4971 75.0074 19.1794 75.3022 17.5774C75.5732 16.1047 75.8871 14.3474 76.4769 12.9738C77.0769 11.5764 78.2383 9.98996 80.4202 9.98996C82.6021 9.98996 83.7636 11.5764 84.3636 12.9738C84.9534 14.3474 85.2673 16.1047 85.5383 17.5774C85.8331 19.1794 86.0851 20.4971 86.4854 21.4295C86.8756 22.3382 87.1288 22.2892 87.2101 22.2892C87.2915 22.2892 87.5446 22.3382 87.9348 21.4295C88.3351 20.4971 88.5871 19.1794 88.8819 17.5774C89.1529 16.1047 89.4669 14.3474 90.0566 12.9738C90.6567 11.5764 91.8181 9.98996 94 9.98996V13.504Z" fill="#F3EEE9"/>
</svg>
