<svg width="95" height="32" viewBox="0 0 95 32" fill="none" xmlns="http://www.w3.org/2000/svg">
<g clip-path="url(#clip0_32216_221)">
<path d="M58.5169 26C57.0217 26 55.676 25.672 54.4798 25.0161C53.3023 24.3601 52.3584 23.4324 51.6482 22.2329C50.9566 21.0335 50.6109 19.6185 50.6109 17.988C50.6109 16.3574 50.966 14.9518 51.6762 13.7711C52.3865 12.5716 53.349 11.6533 54.5639 11.0161C55.7788 10.3601 57.1338 10.0321 58.6291 10.0321C60.1243 10.0321 61.47 10.3601 62.6662 11.0161C63.8811 11.6533 64.8436 12.5716 65.5539 13.7711C66.2641 14.9518 66.6192 16.3574 66.6192 17.988C66.6192 19.6185 66.2547 21.0335 65.5258 22.2329C64.8156 23.4324 63.8437 24.3601 62.6101 25.0161C61.3952 25.672 60.0308 26 58.5169 26ZM58.5169 22.5422C59.2085 22.5422 59.8626 22.3829 60.4794 22.0643C61.0962 21.7269 61.6008 21.2209 61.9933 20.5462C62.3858 19.8527 62.5821 19 62.5821 17.988C62.5821 16.9759 62.3858 16.1325 61.9933 15.4578C61.6195 14.7831 61.1242 14.2865 60.5074 13.9679C59.9094 13.6305 59.2645 13.4618 58.573 13.4618C57.8814 13.4618 57.2366 13.6305 56.6385 13.9679C56.0591 14.2865 55.5825 14.7831 55.2087 15.4578C54.8349 16.1325 54.648 16.9759 54.648 17.988C54.648 19 54.8256 19.8527 55.1807 20.5462C55.5358 21.2209 56.003 21.7269 56.5825 22.0643C57.1805 22.3829 57.8254 22.5422 58.5169 22.5422Z" fill="#594A3C" fill-opacity="0.88"/>
<path d="M43.7888 21.6145V5H47.7418V21.3614C47.7418 21.7738 47.8633 22.083 48.1063 22.2892C48.3492 22.4953 48.639 22.5984 48.9754 22.5984C49.2184 22.5984 49.4239 22.5609 49.5922 22.4859L50.3211 25.494C49.6669 25.8313 48.9193 26 48.0782 26C47.3867 26 46.7045 25.8594 46.0316 25.5783C45.3775 25.2784 44.8354 24.8099 44.4056 24.1727C43.9944 23.5167 43.7888 22.664 43.7888 21.6145Z" fill="#594A3C" fill-opacity="0.88"/>
<path d="M36.2312 21.6145V5H40.1842V21.3614C40.1842 21.7738 40.3057 22.083 40.5487 22.2892C40.7917 22.4953 41.0814 22.5984 41.4178 22.5984C41.6608 22.5984 41.8664 22.5609 42.0346 22.4859L42.7635 25.494C42.1093 25.8313 41.3617 26 40.5207 26C39.8291 26 39.1469 25.8594 38.4741 25.5783C37.8199 25.2784 37.2779 24.8099 36.848 24.1727C36.4368 23.5167 36.2312 22.664 36.2312 21.6145Z" fill="#594A3C" fill-opacity="0.88"/>
<path d="M26.3986 26C24.9033 26 23.5576 25.672 22.3614 25.0161C21.184 24.3601 20.2401 23.4324 19.5298 22.2329C18.8383 21.0335 18.4925 19.6185 18.4925 17.988C18.4925 16.3574 18.8476 14.9518 19.5579 13.7711C20.2681 12.5716 21.2307 11.6533 22.4456 11.0161C23.6604 10.3601 25.0155 10.0321 26.5107 10.0321C28.006 10.0321 29.3517 10.3601 30.5479 11.0161C31.7627 11.6533 32.7253 12.5716 33.4355 13.7711C34.1458 14.9518 34.5009 16.3574 34.5009 17.988C34.5009 19.6185 34.1364 21.0335 33.4075 22.2329C32.6973 23.4324 31.7254 24.3601 30.4918 25.0161C29.2769 25.672 27.9125 26 26.3986 26ZM26.3986 22.5422C27.0901 22.5422 27.7443 22.3829 28.3611 22.0643C28.9779 21.7269 29.4825 21.2209 29.875 20.5462C30.2675 19.8527 30.4637 19 30.4637 17.988C30.4637 16.9759 30.2675 16.1325 29.875 15.4578C29.5012 14.7831 29.0059 14.2865 28.3891 13.9679C27.791 13.6305 27.1462 13.4618 26.4547 13.4618C25.7631 13.4618 25.1183 13.6305 24.5202 13.9679C23.9408 14.2865 23.4642 14.7831 23.0904 15.4578C22.7166 16.1325 22.5297 16.9759 22.5297 17.988C22.5297 19 22.7072 19.8527 23.0623 20.5462C23.4175 21.2209 23.8847 21.7269 24.4641 22.0643C25.0622 22.3829 25.707 22.5422 26.3986 22.5422Z" fill="#594A3C" fill-opacity="0.88"/>
<path d="M0.5 6.18072H4.45303V25.8032H0.5V6.18072ZM12.8076 6.18072H16.7607V25.8032H12.8076V6.18072ZM3.89231 14.249H13.5085V17.4538H3.89231V14.249Z" fill="#594A3C" fill-opacity="0.88"/>
<path d="M94.5 13.504C94.4187 13.504 94.1655 13.455 93.7753 14.3637C93.375 15.2961 93.123 16.6138 92.8282 18.2157C92.5572 19.6885 92.2433 21.4458 91.6535 22.8194C91.0534 24.2168 89.892 25.8032 87.7101 25.8032C85.5282 25.8032 84.3668 24.2168 83.7667 22.8194C83.177 21.4458 82.8631 19.6885 82.592 18.2157C82.2973 16.6138 82.0453 15.2961 81.6449 14.3637C81.2547 13.455 81.0016 13.504 80.9202 13.504C80.8389 13.504 80.5857 13.455 80.1956 14.3637C79.7952 15.2961 79.5432 16.6138 79.2484 18.2157C78.9774 19.6885 78.6635 21.4458 78.0737 22.8194C77.4737 24.2168 76.3123 25.8032 74.1304 25.8032C73.1189 25.8032 72.2456 25.4407 71.5628 24.8046C70.9265 24.2118 70.5311 23.4533 70.264 22.7473C69.7457 21.377 69.5077 19.6087 69.2861 18.1634C69.0425 16.5751 68.8101 15.2933 68.4014 14.4048C68.2088 13.9863 68.0268 13.7708 67.888 13.6627C67.7792 13.578 67.6313 13.504 67.3405 13.504V9.98996C68.3699 9.98996 69.2835 10.3004 70.0381 10.8882C70.7626 11.4527 71.2463 12.1982 71.5841 12.9326C72.2363 14.3502 72.5224 16.1434 72.7503 17.6298C73.0002 19.2591 73.1869 20.5659 73.5409 21.5016C73.7099 21.9483 73.8625 22.1511 73.9481 22.2308C73.9872 22.2673 74.0103 22.2892 74.1304 22.2892C74.2117 22.2892 74.4649 22.3382 74.855 21.4295C75.2554 20.4971 75.5074 19.1794 75.8022 17.5774C76.0732 16.1047 76.3871 14.3474 76.9769 12.9738C77.5769 11.5764 78.7383 9.98996 80.9202 9.98996C83.1021 9.98996 84.2636 11.5764 84.8636 12.9738C85.4534 14.3474 85.7673 16.1047 86.0383 17.5774C86.3331 19.1794 86.5851 20.4971 86.9854 21.4295C87.3756 22.3382 87.6288 22.2892 87.7101 22.2892C87.7915 22.2892 88.0446 22.3382 88.4348 21.4295C88.8351 20.4971 89.0871 19.1794 89.3819 17.5774C89.6529 16.1047 89.9669 14.3474 90.5566 12.9738C91.1567 11.5764 92.3181 9.98996 94.5 9.98996V13.504Z" fill="#594A3C" fill-opacity="0.88"/>
</g>
<defs>
<clipPath id="clip0_32216_221">
<rect width="94" height="32" fill="white" transform="translate(0.5)"/>
</clipPath>
</defs>
</svg>
